#!OML:ASF E:\Steps\Project 1\Capture day 1\Session 2\Subject.ASF
:FULLY-SPECIFIED
:DEGREES
316
root 7.30204 15.827 27.5174 -154.516 3.32929 176.339
lowerback -25.0031 -0.0664943 -9.24494
upperback 0.227704 3.58983 -3.20972
thorax 14.0631 1.31092 2.93883
lowerneck -3.87536 -2.1221 -1.70436
upperneck 17.0005 -4.52412 5.10071
head 5.92163 -2.31062 1.56897
rclavicle -4.37326e-015 1.82882e-014
rhumerus -34.3174 -9.53388 -86.6135
rradius 42.3308
rwrist -5.12102
rhand -7.45187 -53.9138
rfingers 7.12502
rthumb 18.4362 -83.0602
lclavicle -4.37326e-015 1.82882e-014
lhumerus -33.5436 13.8245 74.2663
lradius 19.0756
lwrist -6.39899
lhand -20.7579 -13.3687
lfingers 7.12502
lthumb 5.60811 16.5371
rfemur -13.1529 10.5176 20.6706
rtibia 20.2815
rfoot -29.7483 -9.19403
rtoes -33.5488
lfemur -46.9935 -11.0887 -18.8198
ltibia 26.5561
lfoot -5.40015 3.2634
ltoes -26.2426
317
root 7.29185 15.837 27.4193 -154.376 3.58395 176.452
lowerback -25.0938 0.00876 -9.30844
upperback 0.160202 3.71559 -3.19493
thorax 14.0148 1.36813 3.03928
lowerneck -3.93809 -2.26041 -1.76955
upperneck 16.9561 -4.71842 5.21328
head 5.92985 -2.39817 1.6018
rclavicle 1.82882e-014 -4.77083e-014
rhumerus -34.3699 -9.62295 -86.4621
rradius 42.3159
rwrist -4.97026
rhand -6.88 -53.6622
rfingers 7.12502
rthumb 18.9862 -82.7555
lclavicle 1.82882e-014 -4.77083e-014
lhumerus -33.4741 13.9239 74.3135
lradius 18.9835
lwrist -6.27922
lhand -20.6391 -13.4523
lfingers 7.12502
lthumb 5.72278 16.4505
rfemur -13.9711 10.3829 20.7108
rtibia 22.3378
rfoot -29.4468 -8.97892
rtoes -33.6894
lfemur -46.6501 -10.8123 -18.9015
ltibia 26.4495
lfoot -5.6974 3.10633
ltoes -24.2741
318
root 7.27694 15.8505 27.3142 -154.412 3.78434 176.529
lowerback -25.1938 0.0701288 -9.3398
upperback 0.205291 3.81191 -3.16948
thorax 14.1102 1.39858 3.12349
lowerneck -3.93309 -2.44986 -1.80279
upperneck 16.8425 -4.9701 5.27133
head 5.90525 -2.51621 1.60972
rclavicle -2.80286e-014 8.74653e-015
rhumerus -34.3189 -9.60861 -86.3337
rradius 42.2966
rwrist -5.0254
rhand -6.15137 -52.6325
rfingers 7.12502
rthumb 19.6868 -81.6556
lclavicle -2.80286e-014 8.74653e-015
lhumerus -33.3607 13.7915 74.5472
lradius 18.9824
lwrist -6.15208
lhand -20.6792 -13.3114
lfingers 7.12502
lthumb 5.68407 16.5924
rfemur -14.5645 9.96493 20.6504
rtibia 24.2647
rfoot -28.967 -8.37818
rtoes -32.6856
lfemur -46.0292 -10.741 -19.0179
ltibia 26.2338
lfoot -6.05962 3.0969
ltoes -22.5781
319
root 7.26523 15.8669 27.2102 -154.616 3.6113 176.313
lowerback -25.0914 -0.0591474 -9.63092
upperback 0.321117 3.72304 -3.17656
thorax 14.1869 1.32962 3.24405
lowerneck -3.94597 -2.35828 -1.63817
upperneck 16.8404 -4.81909 5.06493
head 5.89273 -2.44479 1.5274
rclavicle -3.04141e-014 5.00937e-014
rhumerus -34.2208 -9.59042 -86.2662
rradius 42.2406
rwrist -5.15466
rhand -5.90894 -51.854
rfingers 7.12502
rthumb 19.9199 -80.8531
lclavicle -3.04141e-014 5.00937e-014
lhumerus -33.2516 13.7979 74.6711
lradius 19.0262
lwrist -6.16598
lhand -20.6043 -13.5068
lfingers 7.12502
lthumb 5.75638 16.395
rfemur -14.8535 9.08026 20.4987
rtibia 25.7921
rfoot -28.0943 -8.00609
rtoes -32.4738
lfemur -45.2391 -10.8608 -19.5181
ltibia 26.0091
lfoot -6.34189 2.74052
ltoes -22.2644
320
root 7.25182 15.8915 27.1033 -155.032 3.21843 175.977
lowerback -24.6818 -0.238265 -9.95438
upperback 0.457969 3.54304 -3.22146
thorax 14.1284 1.22657 3.29654
lowerneck -4.07167 -2.45829 -1.54062
upperneck 17.0308 -4.99846 5.08126
head 5.9795 -2.52587 1.50083
rclavicle -9.93923e-015 6.36111e-015
rhumerus -34.287 -9.52762 -86.2358
rradius 42.2882
rwrist -5.34849
rhand -6.23847 -51.8935
rfingers 7.12502
rthumb 19.6031 -80.9252
lclavicle -9.93923e-015 6.36111e-015
lhumerus -33.2089 13.6922 74.7627
lradius 19.1462
lwrist -6.13432
lhand -20.6227 -13.5514
lfingers 7.12502
lthumb 5.7386 16.3509
rfemur -14.9243 8.17299 20.3097
rtibia 27.4468
rfoot -27.2313 -7.64563
rtoes -31.3107
lfemur -44.1291 -11.1619 -20.1513
ltibia 25.6506
lfoot -6.57135 2.34455
ltoes -22.8056
321
root 7.23708 15.9132 27.0096 -155.086 3.27203 175.956
lowerback -24.5359 -0.252016 -9.99724
upperback 0.442432 3.52122 -3.24488
thorax 14.0294 1.22187 3.28132
lowerneck -4.01954 -2.48795 -1.49043
upperneck 17.0356 -5.04833 5.06432
head 5.97231 -2.55127 1.48451
rclavicle 1.13307e-014 -1.90833e-014
rhumerus -34.3651 -9.41234 -86.2157
rradius 42.307
rwrist -5.28352
rhand -6.3064 -51.8677
rfingers 7.12502
rthumb 19.5378 -80.906
lclavicle 1.13307e-014 -1.90833e-014
lhumerus -33.2275 13.7483 74.7879
lradius 19.311
lwrist -6.16223
lhand -20.7594 -13.5162
lfingers 7.12502
lthumb 5.60669 16.3896
rfemur -15.8615 7.73409 20.2008
rtibia 29.8221
rfoot -26.3549 -6.89885
rtoes -30.0605
lfemur -43.4785 -10.9729 -20.4573
ltibia 25.356
lfoot -6.79648 2.17539
ltoes -23.4123
322
root 7.22584 15.9267 26.933 -154.614 3.56425 176.094
lowerback -24.7198 -0.303801 -10.0286
upperback 0.229574 3.47835 -3.19587
thorax 13.8792 1.21909 3.34766
lowerneck -3.89518 -2.40697 -1.48694
upperneck 16.9417 -4.92245 5.01972
head 5.91542 -2.49643 1.48092
rclavicle -2.92213e-014 1.04958e-013
rhumerus -34.3608 -9.24592 -86.1524
rradius 42.2188
rwrist -4.96619
rhand -6.26952 -51.7243
rfingers 7.12502
rthumb 19.5732 -80.759
lclavicle -2.92213e-014 1.04958e-013
lhumerus -33.3503 13.9133 74.8285
lradius 19.537
lwrist -6.15705
lhand -20.8254 -13.5839
lfingers 7.12502
lthumb 5.54296 16.3236
rfemur -17.6539 7.30108 20.1052
rtibia 32.401
rfoot -25.1505 -6.02207
rtoes -30.4236
lfemur -43.6027 -10.4562 -20.5403
ltibia 25.2861
lfoot -7.04472 1.94268
ltoes -23.051
323
root 7.21482 15.9388 26.8428 -154.247 3.76356 176.206
lowerback -24.909 -0.403284 -10.078
upperback 0.0368944 3.37759 -3.1268
thorax 13.7613 1.18567 3.42694
lowerneck -3.75075 -2.31165 -1.60922
upperneck 16.7881 -4.79351 5.17211
head 5.84341 -2.43545 1.56078
rclavicle -2.3059e-014 7.07673e-014
rhumerus -34.5043 -8.9855 -86.053
rradius 42.3174
rwrist -5.00236
rhand -6.80138 -52.195
rfingers 7.12502
rthumb 19.0618 -81.2809
lclavicle -2.3059e-014 7.07673e-014
lhumerus -33.6506 13.4225 75.1124
lradius 20.0054
lwrist -5.64839
lhand -20.5529 -13.5883
lfingers 7.12502
lthumb 5.80606 16.3121
rfemur -19.1392 6.50265 20.047
rtibia 34.685
rfoot -23.8746 -4.92242
rtoes -30.349
lfemur -43.5057 -10.0923 -20.6291
ltibia 25.0671
lfoot -7.28586 1.69251
ltoes -22.0768
324
root 7.20093 15.9538 26.75 -154.047 3.77182 176.269
lowerback -25.0252 -0.481132 -10.0244
upperback -0.0750041 3.27473 -3.10577
thorax 13.7074 1.15302 3.38958
lowerneck -3.4767 -2.23443 -1.71134
upperneck 16.5554 -4.6984 5.38212
head 5.72619 -2.39006 1.65523
rclavicle 1.68967e-014 4.13472e-014
rhumerus -34.7065 -8.86862 -85.9613
rradius 42.5272
rwrist -5.18869
rhand -6.98002 -52.8348
rfingers 7.12502
rthumb 18.89 -81.9375
lclavicle 1.68967e-014 4.13472e-014
lhumerus -33.9061 12.68 75.445
lradius 20.5506
lwrist -5.05713
lhand -20.3332 -13.5857
lfingers 7.12502
lthumb 6.01817 16.3089
rfemur -20.4378 5.43089 20.0398
rtibia 36.9881
rfoot -22.3636 -4.08492
rtoes -30.7579
lfemur -43.157 -9.87537 -20.7877
ltibia 24.7167
lfoot -7.45593 1.45904
ltoes -21.9299
325
root 7.18817 15.9813 26.6425 -154.628 3.12213 175.911
lowerback -24.4789 -0.759364 -10.2804
upperback 0.107278 2.90959 -3.10416
thorax 13.6529 0.963434 3.39106
lowerneck -3.43611 -2.16763 -1.6693
upperneck 16.6176 -4.61746 5.33665
head 5.73364 -2.35513 1.63918
rclavicle 1.23246e-014 -1.51076e-014
rhumerus -34.8245 -8.94181 -85.8472
rradius 42.6611
rwrist -5.20443
rhand -6.58827 -52.8685
rfingers 7.12502
rthumb 19.2668 -81.9341
lclavicle 1.23246e-014 -1.51076e-014
lhumerus -33.984 12.0338 75.7836
lradius 20.958
lwrist -4.52802
lhand -20.5225 -13.6486
lfingers 7.12502
lthumb 5.83536 16.2511
rfemur -20.4891 4.00045 19.9003
rtibia 38.7422
rfoot -20.4691 -3.87573
rtoes -30.3294
lfemur -41.7722 -10.2475 -21.4073
ltibia 24.1839
lfoot -7.59792 0.910461
ltoes -22.2389
